<svg width="240" height="70" viewBox="0 0 240 70" fill="none" xmlns="http://www.w3.org/2000/svg">
<path d="M28.8428 60.4365C29.6381 60.4366 30.3412 60.5517 30.9521 60.7822C31.5631 61.0013 32.0701 61.3184 32.4736 61.7334C32.8887 62.1485 33.2007 62.6503 33.4082 63.2383C33.6157 63.8147 33.7188 64.455 33.7188 65.1582V65.7979L25.2559 65.8135C25.3139 66.3321 25.4602 66.7824 25.6943 67.1641C26.0055 67.6597 26.4613 68.0284 27.0605 68.2705C27.66 68.5126 28.3751 68.6338 29.2051 68.6338C29.7238 68.6338 30.2026 68.6106 30.6406 68.5645C31.0903 68.5068 31.5174 68.426 31.9209 68.3223C32.3242 68.207 32.7104 68.0635 33.0791 67.8906L33.166 69.2734C32.8202 69.4348 32.4282 69.5681 31.9902 69.6719C31.5521 69.7756 31.0846 69.8564 30.5889 69.9141C30.1047 69.9717 29.6028 70 29.084 70C28.1735 70 27.3783 69.8908 26.6982 69.6719C26.018 69.4528 25.4465 69.1408 24.9854 68.7373C24.5244 68.3223 24.1727 67.8324 23.9307 67.2676C23.7002 66.6912 23.585 66.0457 23.585 65.3311C23.585 64.5586 23.7061 63.872 23.9482 63.2725C24.1903 62.6616 24.5358 62.1484 24.9854 61.7334C25.4465 61.3069 26 60.9837 26.6455 60.7646C27.2912 60.5456 28.0242 60.4365 28.8428 60.4365ZM73.5361 60.4365C74.6199 60.4365 75.5771 60.6213 76.4072 60.9902C77.237 61.3591 77.8827 61.9006 78.3438 62.6152C78.8049 63.3185 79.0351 64.1891 79.0352 65.2266C79.0352 66.2412 78.8049 67.1064 78.3438 67.8213C77.8826 68.536 77.2372 69.0783 76.4072 69.4473C75.5771 69.8162 74.6199 70 73.5361 70C72.7177 70 71.9682 69.8969 71.2881 69.6895C70.6194 69.4819 70.0428 69.1759 69.5586 68.7725C69.0744 68.3574 68.6937 67.8556 68.417 67.2676C68.1519 66.6796 68.0195 66.005 68.0195 65.2441C68.0196 64.2065 68.2498 63.3301 68.7109 62.6152C69.1836 61.9006 69.8351 61.3592 70.665 60.9902C71.4952 60.6213 72.4524 60.4365 73.5361 60.4365ZM123.628 60.4365C124.712 60.4365 125.669 60.6213 126.499 60.9902C127.329 61.3591 127.974 61.9006 128.436 62.6152C128.897 63.3185 129.128 64.1891 129.128 65.2266C129.128 66.2412 128.897 67.1064 128.436 67.8213C127.974 68.536 127.329 69.0784 126.499 69.4473C125.669 69.8162 124.712 70 123.628 70C122.809 70 122.06 69.897 121.38 69.6895C120.711 69.4819 120.135 69.176 119.65 68.7725C119.166 68.3574 118.785 67.8556 118.509 67.2676C118.244 66.6796 118.111 66.005 118.111 65.2441C118.111 64.2065 118.342 63.33 118.803 62.6152C119.275 61.9004 119.928 61.3592 120.758 60.9902C121.588 60.6214 122.544 60.4366 123.628 60.4365ZM8.1875 65.5381C8.26821 65.8379 8.34898 66.1498 8.42969 66.4727C8.52187 66.7838 8.60879 67.1012 8.68945 67.4238C8.77009 67.7464 8.83887 68.0518 8.89648 68.3398H8.96582C9.04649 68.0402 9.13242 67.7289 9.22461 67.4062C9.31684 67.0834 9.40972 66.7603 9.50195 66.4375C9.60568 66.1148 9.70369 65.8036 9.7959 65.5039L12.3203 57.6523H14.2402L16.7656 65.5381C16.8694 65.8263 16.9673 66.1322 17.0596 66.4551C17.1518 66.7663 17.2437 67.0895 17.3359 67.4238C17.4281 67.7465 17.515 68.0517 17.5957 68.3398H17.665C17.7342 68.0402 17.8029 67.7289 17.8721 67.4062C17.9528 67.0834 18.0396 66.7603 18.1318 66.4375C18.224 66.1033 18.31 65.792 18.3906 65.5039L20.6221 57.6523H22.4209L18.6162 69.7578H16.5752L14.2061 62.7197C14.0331 62.2125 13.8655 61.6702 13.7041 61.0938C13.5542 60.5173 13.4098 59.9811 13.2715 59.4854H13.2031C13.1109 59.8081 13.0129 60.1597 12.9092 60.54C12.8054 60.9205 12.6954 61.2952 12.5801 61.6641C12.4763 62.033 12.3723 62.3854 12.2686 62.7197L9.91699 69.7578H7.8584L4.01953 57.6523H5.8877L8.1875 65.5381ZM43.7959 63.8955H43.8652L50.6963 57.6523H52.9785L47.2607 62.8789L53.498 69.7578H51.249L45.9658 63.9561L43.7959 65.8975V69.7578H42.1357V57.6523H43.7959V63.8955ZM61.042 60.4189C61.8836 60.4189 62.6278 60.5633 63.2734 60.8516C63.9189 61.1283 64.426 61.5726 64.7949 62.1836C65.1753 62.7946 65.3652 63.6076 65.3652 64.6221V69.7578H63.7402V64.8291C63.7402 64.195 63.6302 63.6588 63.4111 63.2207C63.2036 62.7712 62.8753 62.4368 62.4258 62.2178C61.9762 61.9872 61.3824 61.8721 60.6445 61.8721C59.9643 61.8721 59.3585 61.9811 58.8281 62.2002C58.3094 62.4077 57.9003 62.7369 57.6006 63.1865C57.3125 63.6361 57.168 64.2068 57.168 64.8984V69.7578H55.543V60.6611H57.1514V62.0791H57.248C57.3802 61.8967 57.5264 61.7295 57.6875 61.5781C58.0795 61.2092 58.5521 60.9265 59.1055 60.7305C59.6588 60.523 60.3043 60.419 61.042 60.4189ZM83.9297 65.5205C84.0335 65.8088 84.1263 66.1207 84.207 66.4551C84.2992 66.7777 84.3852 67.1063 84.4658 67.4404C84.5581 67.7633 84.6388 68.0752 84.708 68.375H84.7773C84.858 68.0752 84.9449 67.7633 85.0371 67.4404C85.1293 67.1178 85.2213 66.7952 85.3135 66.4727C85.4172 66.1498 85.5212 65.8439 85.625 65.5557L87.2852 60.6611H89.0488L90.7266 65.5557C90.8303 65.8439 90.9283 66.1499 91.0205 66.4727C91.1242 66.7953 91.2223 67.1178 91.3145 67.4404C91.4067 67.7632 91.4935 68.0804 91.5742 68.3916H91.6426C91.7233 68.0804 91.8041 67.7632 91.8848 67.4404C91.977 67.1178 92.0699 66.7953 92.1621 66.4727C92.2659 66.1498 92.3638 65.8439 92.4561 65.5557L94.1162 60.6611H95.707L92.5254 69.7578H90.6748L89.0664 65.1582C88.9742 64.8701 88.8762 64.5527 88.7725 64.207C88.6687 63.8611 88.5647 63.5088 88.4609 63.1514C88.3688 62.7941 88.2768 62.4657 88.1846 62.166H88.1152C88.0345 62.4657 87.9416 62.794 87.8379 63.1514C87.7457 63.5088 87.6477 63.8611 87.5439 64.207C87.4402 64.5527 87.3422 64.864 87.25 65.1406L85.6074 69.7578H83.7568L80.6787 60.6611H82.3564L83.9297 65.5205ZM105.12 62.8574H113.421V57.6523H115.133V69.7578H113.421V64.3623H105.12V69.7578H103.408V57.6523H105.12V62.8574ZM134.021 65.5205C134.125 65.8088 134.218 66.1207 134.299 66.4551C134.391 66.7777 134.477 67.1063 134.558 67.4404C134.65 67.7633 134.731 68.0752 134.8 68.375H134.869C134.95 68.0752 135.037 67.7633 135.129 67.4404C135.221 67.1179 135.313 66.7952 135.405 66.4727C135.509 66.1499 135.613 65.8439 135.717 65.5557L137.377 60.6611H139.141L140.818 65.5557C140.922 65.8439 141.02 66.1498 141.112 66.4727C141.216 66.7953 141.314 67.1178 141.406 67.4404C141.498 67.7632 141.585 68.0804 141.666 68.3916H141.735C141.816 68.0804 141.897 67.7631 141.978 67.4404C142.07 67.1179 142.162 66.7952 142.254 66.4727C142.358 66.1499 142.456 65.8439 142.548 65.5557L144.208 60.6611H145.799L142.617 69.7578H140.767L139.158 65.1582C139.066 64.8701 138.968 64.5528 138.864 64.207C138.76 63.8611 138.656 63.5088 138.553 63.1514C138.461 62.7941 138.369 62.4657 138.276 62.166H138.207C138.126 62.4657 138.034 62.7941 137.931 63.1514C137.838 63.5088 137.74 63.8611 137.637 64.207C137.533 64.5528 137.435 64.864 137.343 65.1406L135.699 69.7578H133.849L130.771 60.6611H132.448L134.021 65.5205ZM73.5361 61.8027C72.7867 61.8027 72.1233 61.935 71.5469 62.2002C70.9705 62.4539 70.515 62.8346 70.1807 63.3418C69.858 63.8375 69.6973 64.4658 69.6973 65.2266C69.6973 65.9873 69.8581 66.6217 70.1807 67.1289C70.5035 67.6362 70.9538 68.0169 71.5303 68.2705C72.1067 68.5126 72.7753 68.6338 73.5361 68.6338C74.2971 68.6338 74.9605 68.5076 75.5254 68.2539C76.1017 68.0003 76.5513 67.6195 76.874 67.1123C77.2084 66.605 77.375 65.976 77.375 65.2266C77.3749 64.4658 77.2083 63.8375 76.874 63.3418C76.5513 62.8346 76.1017 62.4539 75.5254 62.2002C74.9605 61.935 74.2971 61.8027 73.5361 61.8027ZM123.628 61.8027C122.879 61.8028 122.216 61.9351 121.64 62.2002C121.063 62.4538 120.608 62.8346 120.273 63.3418C119.951 63.8375 119.789 64.4658 119.789 65.2266C119.789 65.9874 119.951 66.6216 120.273 67.1289C120.596 67.6362 121.046 68.0169 121.622 68.2705C122.198 68.5126 122.867 68.6338 123.628 68.6338C124.389 68.6338 125.052 68.5076 125.617 68.2539C126.194 68.0003 126.643 67.6195 126.966 67.1123C127.3 66.605 127.468 65.976 127.468 65.2266C127.468 64.4658 127.3 63.8375 126.966 63.3418C126.643 62.8346 126.194 62.4538 125.617 62.2002C125.052 61.935 124.389 61.8027 123.628 61.8027ZM28.7734 61.7852C27.9894 61.7852 27.3321 61.9184 26.8018 62.1836C26.283 62.4372 25.8911 62.8119 25.626 63.3076C25.4357 63.6634 25.3145 64.0725 25.2607 64.5352H32.0889C32.0428 64.0394 31.9236 63.6071 31.7305 63.2383C31.4884 62.7541 31.1196 62.3906 30.624 62.1484C30.1399 61.9063 29.5227 61.7852 28.7734 61.7852ZM218.718 0C220.477 0 222.165 0.0543656 223.781 0.164062C225.398 0.273468 226.95 0.438831 228.44 0.658203C229.931 0.877302 231.377 1.1694 232.777 1.53418C234.178 1.89982 235.525 2.33926 236.817 2.85059L235.794 10.8535C234.285 10.2693 232.606 9.78433 230.757 9.40039C228.907 9.01705 226.986 8.73389 224.993 8.55078C223 8.36854 221.033 8.27637 219.095 8.27637C217.156 8.27637 215.548 8.35069 214.273 8.49609C212.998 8.64236 211.984 8.87071 211.229 9.18066C210.476 9.49138 209.937 9.86636 209.614 10.3047C209.291 10.7429 209.129 11.237 209.129 11.7852C209.129 12.2969 209.272 12.7534 209.56 13.1553C209.847 13.5575 210.305 13.9137 210.934 14.2236C211.562 14.5347 212.415 14.7813 213.492 14.9639C214.569 15.1473 215.934 15.3295 217.587 15.5117L223.728 15.9512C226.6 16.2437 229.042 16.6731 231.054 17.2393C233.064 17.8063 234.69 18.5548 235.929 19.4863C237.168 20.4185 238.065 21.5241 238.622 22.8027C239.178 24.0822 239.457 25.562 239.457 27.2422C239.457 29.289 239.053 31.1071 238.245 32.6963C237.437 34.2861 236.198 35.6108 234.528 36.6699C232.859 37.7303 230.721 38.5525 228.117 39.1367C225.513 39.7209 222.38 40.0137 218.718 40.0137C216.275 40.0137 213.941 39.9046 211.715 39.6855C209.488 39.4662 207.352 39.1189 205.305 38.6436C203.257 38.1691 201.228 37.5472 199.217 36.7793L200.24 28.3389C202.179 29.0333 204.181 29.654 206.247 30.2021C208.312 30.7503 210.422 31.1613 212.576 31.4355C214.731 31.7095 216.867 31.8467 218.987 31.8467C220.926 31.8467 222.543 31.7554 223.835 31.5723C225.128 31.3897 226.16 31.1163 226.933 30.751C227.704 30.3859 228.244 29.9553 228.549 29.4619C228.854 28.9687 229.007 28.4296 229.007 27.8447C229.007 27.1144 228.773 26.5205 228.307 26.0635C227.839 25.607 226.995 25.242 225.774 24.9678C224.554 24.6938 222.847 24.4288 220.657 24.1729L214.139 23.6797C211.409 23.3877 209.075 22.9397 207.136 22.3369C205.197 21.7339 203.616 20.9479 202.396 19.9795C201.174 19.0114 200.267 17.8692 199.675 16.5537C199.083 15.2382 198.786 13.7403 198.786 12.0586C198.786 10.1592 199.199 8.46832 200.025 6.98828C200.851 5.50865 202.081 4.24822 203.716 3.20703C205.349 2.16559 207.423 1.37045 209.937 0.822266C212.45 0.274075 215.378 7.65133e-06 218.718 0ZM26.127 39.1973H15.5361V17.0576L26.127 10.0381V39.1973ZM83.4414 8.87988H56.5615V16.1152H81.1797V23.4053H56.5615V31.1338H83.8193V39.1914H46.0029V0.822266H83.4414V8.87988ZM113.609 0.822266C116.338 0.822266 118.781 1.10571 120.936 1.67188C123.091 2.23893 124.922 3.07897 126.431 4.19336C127.939 5.30829 129.098 6.67904 129.905 8.30469C130.714 9.93089 131.117 11.7855 131.117 13.8682C131.117 15.7685 130.758 17.4951 130.04 19.0479C129.321 20.6016 128.235 21.9169 126.78 22.9941C125.519 23.9294 123.984 24.6601 122.209 25.21C122.405 25.3965 122.592 25.5898 122.768 25.79C123.486 26.6123 124.204 27.5167 124.922 28.5029L132.248 39.1914H119.966L112.151 27.0781H101.112V39.1914H90.5537V0.822266H113.609ZM160.928 18.7461C161.574 20.2081 162.212 21.7976 162.841 23.5146C163.468 25.2324 164.088 26.8411 164.699 28.3389H164.968C165.363 27.3162 165.776 26.2473 166.207 25.1318C166.638 24.0182 167.069 22.9124 167.5 21.8164C167.931 20.72 168.361 19.6968 168.793 18.7461L177.089 0.876953H192.334V39.1914H182.584V10.3047H182.261C182.009 11.0722 181.722 11.9133 181.398 12.8262C181.075 13.74 180.724 14.6541 180.348 15.5674C179.971 16.4811 179.584 17.3585 179.189 18.1982L169.386 39.1914H160.12L150.369 18.1436C149.974 17.3763 149.606 16.5263 149.266 15.5947C148.924 14.6626 148.601 13.7309 148.296 12.7988C147.99 11.8673 147.695 11.0176 147.407 10.25H147.191V39.1914H137.387V0.822266H152.578L160.928 18.7461ZM101.112 19.623H112.748C114.399 19.623 115.792 19.4315 116.923 19.0479C118.054 18.6639 118.907 18.0707 119.481 17.2666C120.055 16.4633 120.344 15.4024 120.344 14.0869C120.344 12.9183 120.055 11.9311 119.481 11.127C118.907 10.3237 118.054 9.72936 116.923 9.3457C115.792 8.96207 114.399 8.77052 112.748 8.77051H101.112V19.623ZM41.6113 9.20996H0V0.822266H41.6113V9.20996Z" fill="white"/>
</svg>
